<?xml version="1.0" standalone="no"?>
<!DOCTYPE svg PUBLIC "-//W3C//DTD SVG 20010904//EN"
 "http://www.w3.org/TR/2001/REC-SVG-20010904/DTD/svg10.dtd">
<svg version="1.0" xmlns="http://www.w3.org/2000/svg"
 width="1024.000000pt" height="1024.000000pt" viewBox="0 0 1024.000000 1024.000000"
 preserveAspectRatio="xMidYMid meet">

<g transform="translate(0.000000,1024.000000) scale(0.100000,-0.100000)"
fill="#000000" stroke="none">
<path d="M6290 9623 c-86 -31 -186 -102 -316 -225 l-82 -77 -94 25 c-51 14
-198 55 -327 90 -294 82 -315 85 -375 50 -50 -29 -60 -61 -28 -88 9 -8 88 -59
175 -113 86 -53 157 -98 157 -99 0 0 -129 -1 -288 -1 -433 0 -766 -46 -1167
-161 -702 -201 -1385 -635 -1876 -1191 -390 -442 -646 -907 -848 -1543 -69
-216 -121 -489 -147 -770 -27 -295 -15 -756 26 -1025 16 -100 58 -311 74 -371
l13 -51 -122 -7 c-67 -3 -146 -13 -175 -22 -75 -22 -132 -85 -195 -212 l-49
-102 -81 0 c-68 0 -85 -3 -103 -20 -49 -46 -17 -119 58 -135 17 -4 32 -10 35
-15 3 -5 -10 -30 -29 -55 -19 -25 -40 -62 -46 -83 -5 -20 -10 -114 -10 -208
l0 -172 29 -28 c24 -24 29 -39 33 -91 6 -94 18 -103 139 -103 93 0 98 1 118
26 15 19 21 41 21 75 l0 49 421 2 422 3 70 -105 c302 -451 675 -833 1119
-1145 319 -224 821 -457 1201 -557 52 -13 53 -15 61 -108 19 -207 145 -419
289 -490 104 -50 176 -63 307 -57 126 7 360 47 455 78 135 46 293 129 420 223
19 15 25 11 90 -50 81 -76 221 -184 238 -184 27 0 122 65 177 120 70 70 93
124 67 163 -15 23 -179 160 -237 198 l-25 17 25 6 c14 3 93 22 175 42 829 199
1623 697 2180 1369 480 579 793 1286 899 2035 60 420 45 900 -44 1395 -23 126
-101 416 -150 558 -127 368 -257 630 -471 947 -133 198 -246 336 -429 524
-524 538 -1109 888 -1800 1076 -63 17 -122 35 -130 39 -33 18 -19 43 77 148
171 187 223 274 207 345 -11 52 -77 82 -134 61z m-808 -681 l57 -7 -76 -92
c-41 -51 -82 -93 -92 -93 -9 0 -68 11 -133 23 -114 23 -117 23 -153 5 -77 -40
-62 -66 80 -138 104 -53 108 -56 111 -89 2 -40 27 -63 58 -55 18 4 31 -12 90
-111 44 -73 75 -115 86 -115 9 0 29 13 45 30 l29 30 -22 119 c-12 66 -22 128
-22 140 0 14 45 58 143 140 78 67 147 121 152 121 6 0 24 -24 41 -53 17 -28
68 -113 114 -187 45 -74 108 -177 139 -227 49 -81 59 -93 84 -93 22 0 33 9 57
47 17 26 30 56 30 66 0 11 -23 103 -51 204 -28 102 -48 187 -46 189 7 7 263
-74 397 -126 151 -58 320 -137 461 -214 524 -289 1040 -803 1394 -1390 216
-360 410 -923 474 -1381 28 -202 30 -225 21 -225 -8 0 -152 154 -158 168 -1 4
16 6 38 4 41 -4 41 -4 34 24 -13 56 -23 72 -56 94 -50 35 -88 72 -88 87 0 7 6
10 15 7 9 -4 15 0 15 8 0 28 -53 194 -95 298 -46 115 -58 140 -65 140 -8 0
-31 -72 -56 -175 -9 -38 -25 -94 -36 -123 l-20 -54 -25 24 c-36 32 -133 155
-133 167 0 5 15 13 33 16 17 4 38 12 44 17 7 6 24 8 38 6 14 -3 25 -1 25 3 0
5 -39 47 -86 95 -56 56 -94 104 -110 138 -13 29 -35 63 -49 76 -36 34 -23 40
42 20 32 -10 59 -17 61 -15 2 1 -29 65 -67 141 -38 77 -79 164 -90 194 -36
100 -99 275 -106 293 -4 9 -11 17 -15 17 -4 0 -22 -53 -39 -117 -46 -171 -78
-259 -123 -335 -21 -38 -41 -68 -44 -68 -13 0 -215 169 -276 230 -75 76 -128
167 -106 182 7 5 39 7 71 4 43 -3 56 -1 49 7 -4 7 -33 44 -64 82 -70 88 -90
129 -168 345 -34 96 -66 179 -71 184 -4 5 -15 -18 -24 -50 -31 -111 -85 -281
-100 -318 l-16 -37 -127 113 c-94 83 -160 153 -247 263 -207 259 -637 671
-753 721 -77 33 -204 6 -387 -82 -119 -57 -148 -82 -236 -210 -103 -150 -202
-233 -594 -496 -219 -147 -276 -186 -439 -302 -59 -42 -109 -76 -111 -74 -1 2
-26 66 -55 143 -61 163 -99 241 -109 229 -4 -5 -17 -43 -29 -84 -65 -224 -98
-322 -129 -385 -45 -91 -47 -93 -120 -138 -61 -37 -83 -40 -83 -13 0 7 -11 30
-25 50 -14 20 -25 39 -25 41 0 9 125 5 158 -4 31 -9 33 -9 26 12 -3 12 -16 33
-28 47 -12 14 -46 52 -76 85 -29 33 -61 78 -71 101 -10 22 -28 53 -40 68 -12
15 -18 30 -15 33 3 4 29 1 58 -5 28 -7 53 -11 55 -8 2 2 -32 74 -76 160 -72
141 -103 223 -171 444 -13 40 -26 69 -30 65 -4 -4 -33 -87 -64 -183 -63 -190
-95 -261 -160 -354 -45 -63 -80 -125 -74 -131 2 -2 28 3 58 11 30 8 63 14 74
14 17 0 18 -2 4 -17 -9 -10 -27 -41 -41 -69 -14 -28 -69 -99 -121 -158 -53
-59 -96 -111 -96 -116 0 -5 43 -6 95 -3 65 4 95 3 95 -5 0 -6 -4 -13 -9 -16
-5 -3 -14 -29 -21 -56 -16 -67 -63 -135 -169 -245 -85 -88 -137 -152 -129
-160 2 -2 24 1 48 6 47 11 167 15 176 6 21 -21 -145 -211 -258 -296 l-57 -43
-30 24 c-25 19 -101 142 -101 162 0 4 10 4 23 2 45 -10 203 -47 221 -53 40
-11 -40 100 -161 228 -73 76 -123 136 -123 148 0 11 -4 23 -10 26 -5 3 -10 13
-10 22 0 13 11 15 70 11 39 -3 70 -3 70 -1 0 3 -11 19 -26 37 -121 149 -115
136 -227 464 -17 50 -34 92 -38 92 -8 0 -16 -21 -74 -205 -48 -153 -74 -214
-121 -282 -31 -46 -77 -134 -72 -139 2 -2 28 3 58 11 30 8 56 13 58 11 2 -2
-12 -26 -31 -53 -19 -26 -46 -72 -60 -100 -14 -29 -50 -86 -80 -126 -30 -40
-60 -83 -67 -96 -12 -24 -12 -24 26 -17 123 20 111 22 112 -19 2 -47 -13 -69
-150 -214 -60 -63 -108 -117 -108 -120 0 -4 13 -14 29 -24 21 -12 51 -17 105
-17 59 0 76 -3 76 -14 0 -8 -4 -16 -9 -18 -5 -1 -32 -24 -60 -51 l-50 -47 -35
30 c-28 25 -126 170 -126 186 0 2 18 4 39 4 l40 0 -48 103 c-27 56 -65 155
-86 220 -21 64 -43 124 -49 132 -9 12 -19 -11 -50 -112 -44 -141 -67 -197
-120 -292 -20 -34 -36 -64 -36 -66 0 -2 18 -1 41 2 l40 6 -22 -39 c-12 -21
-48 -77 -80 -124 -33 -47 -59 -90 -59 -95 0 -6 21 -9 50 -7 49 4 50 3 50 -25
0 -38 -17 -61 -127 -174 -94 -98 -112 -127 -70 -115 40 12 115 19 132 13 14
-6 14 -10 0 -44 -28 -66 -64 -104 -129 -132 -33 -15 -76 -31 -95 -34 l-33 -7
7 83 c43 547 220 1157 467 1611 191 352 365 583 653 871 328 329 757 620 1190
809 422 184 809 276 1305 310 78 5 524 -4 592 -12z m-1719 -2057 c-3 -9 -8
-14 -10 -11 -3 3 -2 9 2 15 9 16 15 13 8 -4z m2267 -660 c341 -298 648 -567
684 -600 6 -6 58 -51 116 -100 58 -50 110 -94 116 -100 6 -5 50 -44 97 -85
l86 -75 -52 -52 c-29 -29 -56 -53 -60 -53 -5 0 -111 91 -235 201 -125 111
-258 229 -297 263 -38 34 -191 169 -339 301 -376 335 -364 325 -395 325 -20 0
-59 -27 -152 -107 -69 -60 -172 -148 -229 -198 -58 -49 -125 -109 -150 -131
-25 -23 -81 -72 -125 -109 -44 -37 -114 -98 -155 -134 -41 -37 -127 -111 -190
-166 -63 -54 -141 -123 -174 -153 l-58 -56 -44 50 c-24 27 -43 52 -44 55 0 4
39 42 88 84 48 43 103 92 122 109 19 18 114 101 210 186 96 85 218 193 270
240 52 47 122 108 154 135 33 28 76 65 96 83 20 18 117 101 215 185 l179 152
45 -49 c25 -27 125 -117 221 -201z m2353 -52 c-7 -2 -19 -2 -25 0 -7 3 -2 5
12 5 14 0 19 -2 13 -5z m-2526 -299 c15 -15 52 -47 82 -73 30 -25 71 -61 90
-78 l36 -33 -334 0 c-208 0 -331 4 -325 9 5 6 61 53 124 105 l115 96 92 0 c85
0 94 -2 120 -26z m-3857 -61 c0 -5 -11 -16 -24 -25 -23 -17 -25 -17 -40 7
l-16 25 40 0 c22 0 40 -3 40 -7z m4210 -246 c20 -17 69 -61 110 -96 84 -73
110 -98 110 -106 0 -3 -322 -5 -715 -5 l-715 0 107 86 c60 48 122 99 138 115
36 34 36 34 565 37 l365 2 35 -33z m451 -399 c54 -50 99 -99 99 -109 0 -50 3
-49 -239 -50 -155 0 -237 -4 -261 -13 -34 -12 -35 -14 -35 -67 l0 -54 250 -6
c138 -3 256 -7 263 -8 9 -1 12 -27 12 -96 l0 -95 -258 0 -257 0 -12 -39 c-13
-40 -9 -70 11 -83 6 -4 124 -8 262 -8 138 0 253 -2 255 -4 2 -2 3 -47 1 -100
l-3 -96 -262 -2 -262 -3 0 -60 0 -60 260 -5 260 -5 3 -102 3 -103 -341 0 -340
0 0 373 c0 204 -3 430 -7 500 -6 116 -8 129 -27 140 -22 13 -527 24 -572 13
-56 -14 -54 5 -54 -533 l0 -495 -387 7 c-214 4 -391 9 -395 12 -5 2 -8 35 -8
73 0 58 4 73 23 96 l24 27 294 1 294 1 3 45 c3 44 1 47 -33 63 -31 15 -72 17
-308 17 -150 0 -278 4 -286 9 -23 15 -8 115 25 162 l27 39 291 2 291 3 3 42
c5 69 -10 72 -348 75 l-285 3 -3 86 -3 86 32 7 c17 3 154 6 304 6 151 0 279 2
287 5 9 4 12 20 10 54 l-4 50 -49 10 c-28 6 -165 11 -314 11 -256 0 -265 1
-265 19 0 11 9 26 20 34 12 8 42 34 68 58 26 25 74 68 108 97 l60 52 600 3
c329 1 706 3 837 5 l239 2 99 -92z m-755 -726 c19 -13 22 -38 8 -71 -11 -27
-18 -32 -40 -29 -16 2 -37 16 -51 35 l-24 32 20 20 c21 21 66 28 87 13z
m-4182 -398 c43 -21 62 -39 100 -96 25 -39 59 -98 76 -133 l30 -62 88 -5 c113
-7 127 -14 136 -74 7 -55 -9 -80 -73 -109 l-39 -17 37 -61 36 -61 3 -197 3
-196 -33 -28 c-27 -23 -34 -37 -39 -79 l-6 -51 -1 57 c-2 48 1 59 18 68 45 24
52 61 48 239 -4 180 -11 205 -74 280 -14 18 -25 33 -23 34 2 2 28 14 57 27 61
27 76 48 67 91 -10 46 -39 59 -130 59 l-80 0 -54 107 c-87 170 -157 223 -298
223 -38 0 -52 3 -47 11 12 20 139 2 198 -27z m-406 -101 c-49 -2 -88 -5 -88
-6 1 -1 22 -67 49 -147 l48 -145 74 -6 c41 -4 -90 -5 -291 -2 -201 2 -366 6
-368 8 -4 4 91 192 116 228 36 53 59 62 177 68 61 3 169 5 240 5 87 0 101 -1
43 -3z m2392 -128 c231 -7 450 -33 843 -99 489 -83 986 -195 1177 -266 47 -17
99 -36 117 -41 73 -22 241 -89 284 -113 57 -32 125 -104 146 -153 37 -91 -18
-161 -192 -243 -66 -32 -158 -72 -205 -90 -380 -145 -557 -255 -576 -358 -12
-61 42 -153 129 -219 38 -29 176 -75 327 -109 142 -32 561 -113 660 -128 369
-57 624 -86 719 -81 82 3 84 3 65 -15 -52 -50 -243 -163 -449 -266 -185 -91
-268 -127 -425 -178 -167 -55 -418 -121 -427 -113 -1 2 6 32 17 68 11 35 22
82 25 104 3 22 10 67 15 100 24 149 4 416 -34 453 -42 43 -271 3 -637 -109
l-127 -39 -178 45 c-99 24 -224 54 -279 65 -150 32 -276 67 -382 106 -53 18
-104 34 -114 34 -89 0 128 -188 311 -270 30 -14 58 -30 62 -36 4 -6 39 -37 78
-69 38 -33 70 -61 70 -65 0 -3 -21 -16 -47 -30 -76 -39 -257 -163 -364 -250
l-98 -79 -58 15 c-292 76 -403 124 -378 165 9 13 104 39 145 39 20 0 40 3 43
6 16 16 -220 151 -383 218 -113 47 -393 194 -472 248 -95 65 -183 153 -205
205 -19 46 -16 118 7 162 33 65 111 120 247 173 330 128 749 225 1328 308 428
61 583 100 653 163 16 15 22 32 22 64 0 35 -6 50 -36 83 -73 80 -259 180 -484
258 -466 163 -767 251 -1085 318 -82 17 -125 37 -64 29 19 -2 113 -7 209 -10z
m-2922 -375 c130 -79 17 -275 -118 -205 -80 41 -79 168 2 208 44 22 76 21 116
-3z m1140 -25 c72 -78 17 -195 -92 -195 -45 0 -92 39 -107 90 -10 32 -9 44 7
77 39 79 132 93 192 28z m-332 -172 c13 -50 -3 -53 -304 -53 -169 0 -281 4
-293 10 -18 10 -26 50 -12 63 3 4 140 7 304 7 l299 0 6 -27z m161 -355 c-2
-13 -4 -5 -4 17 -1 22 1 32 4 23 2 -10 2 -28 0 -40z m5153 -444 c209 -18 330
-33 348 -43 11 -6 11 -11 -3 -24 -14 -14 -24 -17 -57 -17 -2 0 -34 -11 -72
-25 -57 -21 -87 -25 -170 -25 -147 0 -372 18 -516 41 -196 30 -428 84 -416 96
9 10 294 18 506 15 113 -1 284 -9 380 -18z m-2280 -484 c-18 -5 -40 -16 -47
-26 -7 -10 -13 -13 -13 -6 0 17 42 42 70 41 21 -1 19 -2 -10 -9z m1198 -17
c12 -24 21 -163 13 -187 -6 -16 -9 -17 -22 -3 -31 31 -105 60 -164 65 -107 8
-328 -35 -456 -90 -56 -23 -77 -59 -55 -92 28 -44 175 -103 414 -166 45 -12
82 -26 82 -32 0 -16 -159 -138 -179 -138 -3 0 -53 39 -111 86 -135 110 -336
274 -364 296 -21 17 -20 17 44 46 111 50 379 138 520 171 168 39 253 58 262
60 4 1 11 -7 16 -16z m-231 -259 c-3 -3 -12 -4 -19 -1 -8 3 -5 6 6 6 11 1 17
-2 13 -5z m-74 -11 c-7 -2 -21 -2 -30 0 -10 3 -4 5 12 5 17 0 24 -2 18 -5z
m-73 -13 c-14 -4 -34 -8 -45 -8 -16 0 -15 2 5 8 14 4 34 8 45 8 16 0 15 -2 -5
-8z m265 0 c3 -6 -1 -7 -9 -4 -18 7 -21 14 -7 14 6 0 13 -4 16 -10z m-690
-177 c75 -62 134 -113 132 -113 -3 0 -89 27 -192 61 -126 41 -196 59 -215 56
-33 -7 -246 -144 -276 -178 -28 -32 -36 -57 -24 -79 9 -17 131 -69 330 -141
l65 -24 -52 -7 c-47 -7 -65 -3 -187 42 -74 27 -182 67 -240 90 l-106 41 53 48
c119 110 276 221 442 314 l80 44 27 -21 c15 -12 88 -72 163 -133z m495 141
l35 -14 -35 6 c-19 4 -44 10 -55 15 l-20 8 20 0 c11 0 36 -7 55 -15z m251 -21
c13 -16 12 -17 -3 -4 -10 7 -18 15 -18 17 0 8 8 3 21 -13z m-126 -15 c11 -10
-34 -2 -70 13 -13 6 -5 6 20 3 22 -4 45 -11 50 -16z m65 -18 c8 -5 11 -10 5
-10 -5 0 -17 5 -25 10 -8 5 -10 10 -5 10 6 0 17 -5 25 -10z m50 -5 c-7 -8 -17
-15 -23 -15 -6 0 -2 7 9 15 25 19 30 19 14 0z m9 -212 c-13 -35 -78 -164 -90
-179 -16 -20 -119 10 -119 35 0 3 15 14 33 24 17 10 66 46 107 82 41 35 76 64
77 64 1 1 -2 -11 -8 -26z m-1005 -14 c-17 -5 -39 -18 -49 -29 -10 -11 -25 -20
-34 -20 -14 0 -14 -2 -1 -11 12 -9 12 -10 -3 -5 -10 3 -21 6 -25 6 -3 0 18 16
48 35 30 19 64 34 75 34 13 -1 9 -4 -11 -10z m112 -27 c-10 -2 -22 0 -28 6 -6
6 0 7 19 4 21 -5 23 -7 9 -10z m64 -12 c13 -9 13 -10 0 -10 -8 0 -22 5 -30 10
-13 9 -13 10 0 10 8 0 22 -5 30 -10z m140 -50 c8 -5 11 -10 5 -10 -5 0 -17 5
-25 10 -8 5 -10 10 -5 10 6 0 17 -5 25 -10z m109 -38 l35 -16 -50 -22 c-54
-23 -116 -42 -79 -24 11 5 40 18 65 28 l45 19 -55 22 c-30 12 -41 19 -25 16
17 -4 45 -14 64 -23z m-1098 -9 c-8 -15 -10 -15 -11 -2 0 17 10 32 18 25 2 -3
-1 -13 -7 -23z m769 7 c18 -12 2 -12 -25 0 -13 6 -15 9 -5 9 8 0 22 -4 30 -9z
m80 -30 c18 -12 2 -12 -25 0 -13 6 -15 9 -5 9 8 0 22 -4 30 -9z m50 -20 c8 -5
11 -10 5 -10 -5 0 -17 5 -25 10 -8 5 -10 10 -5 10 6 0 17 -5 25 -10z m65 -20
l20 -9 -20 0 c-11 0 -27 4 -35 9 -13 9 -13 10 0 9 8 0 24 -4 35 -9z m413 -50
c29 -36 31 -40 15 -48 -45 -24 -305 -131 -363 -150 -81 -27 -244 -62 -289 -62
l-34 0 7 46 c7 57 12 64 39 64 72 0 427 116 535 175 42 22 56 18 90 -25z
m-1063 -55 c77 -29 169 -62 205 -74 l65 -21 -4 -51 -3 -51 -37 6 c-56 9 -208
60 -303 103 -92 41 -98 48 -98 125 0 25 3 29 18 23 9 -4 80 -30 157 -60z
m1367 -46 c47 -12 224 -143 232 -172 4 -16 -5 -31 -36 -59 -23 -21 -45 -38
-49 -38 -8 0 -98 71 -162 127 -49 43 -77 91 -77 131 0 36 -5 35 92 11z m-242
-33 c0 -8 -25 -37 -56 -65 -98 -89 -310 -178 -528 -220 -126 -25 -209 -34
-204 -24 2 4 14 29 26 56 23 46 24 47 70 47 118 1 399 83 577 170 113 55 115
55 115 36z m-1006 -170 c48 -15 97 -26 108 -26 19 0 19 -1 1 -31 -23 -40 -61
-59 -115 -59 -50 0 -93 21 -145 70 -34 33 -93 115 -93 131 0 4 35 -8 78 -27
42 -18 117 -44 166 -58z"/>
<path d="M5395 2963 c-11 -3 -25 -9 -31 -14 -6 -5 -28 -15 -50 -23 -21 -8 -73
-29 -114 -46 -41 -17 -140 -49 -220 -70 -80 -21 -179 -48 -220 -59 -41 -12
-95 -26 -120 -31 -88 -20 -197 -61 -219 -81 -41 -38 -13 -42 150 -19 429 59
911 243 876 334 -6 16 -16 18 -52 9z"/>
</g>
</svg>
